<svg width="357" height="358" viewBox="0 0 357 358" fill="none" xmlns="http://www.w3.org/2000/svg">
<g filter="url(#filter0_d_649_5987)">
<g clip-path="url(#clip0_649_5987)">
<path d="M1 10.8437C1 7.96781 2.14246 5.20966 4.17606 3.17606C6.20966 1.14246 8.96781 0 11.8437 0L76.9062 0C79.7822 0 82.5403 1.14246 84.5739 3.17606C86.6075 5.20966 87.75 7.96781 87.75 10.8437C87.75 13.7197 86.6075 16.4778 84.5739 18.5114C82.5403 20.545 79.7822 21.6875 76.9062 21.6875H43.6875C32.0895 21.6875 22.6875 31.0895 22.6875 42.6875V75.9062C22.6875 78.7822 21.545 81.5403 19.5114 83.5739C17.4778 85.6075 14.7197 86.75 11.8437 86.75C8.96781 86.75 6.20966 85.6075 4.17606 83.5739C2.14246 81.5403 1 78.7822 1 75.9062V10.8437ZM261.25 10.8437C261.25 7.96781 262.392 5.20966 264.426 3.17606C266.46 1.14246 269.218 0 272.094 0L337.156 0C340.032 0 342.79 1.14246 344.824 3.17606C346.858 5.20966 348 7.96781 348 10.8437V75.9062C348 78.7822 346.858 81.5403 344.824 83.5739C342.79 85.6075 340.032 86.75 337.156 86.75C334.28 86.75 331.522 85.6075 329.489 83.5739C327.455 81.5403 326.312 78.7822 326.312 75.9062V42.6875C326.312 31.0895 316.91 21.6875 305.312 21.6875H272.094C269.218 21.6875 266.46 20.545 264.426 18.5114C262.392 16.4778 261.25 13.7197 261.25 10.8437ZM11.8437 260.25C14.7197 260.25 17.4778 261.392 19.5114 263.426C21.545 265.46 22.6875 268.218 22.6875 271.094V304.312C22.6875 315.91 32.0895 325.312 43.6875 325.312H76.9062C79.7822 325.312 82.5403 326.455 84.5739 328.489C86.6075 330.522 87.75 333.28 87.75 336.156C87.75 339.032 86.6075 341.79 84.5739 343.824C82.5403 345.858 79.7822 347 76.9062 347H11.8437C8.96781 347 6.20966 345.858 4.17606 343.824C2.14246 341.79 1 339.032 1 336.156V271.094C1 268.218 2.14246 265.46 4.17606 263.426C6.20966 261.392 8.96781 260.25 11.8437 260.25ZM337.156 260.25C340.032 260.25 342.79 261.392 344.824 263.426C346.858 265.46 348 268.218 348 271.094V336.156C348 339.032 346.858 341.79 344.824 343.824C342.79 345.858 340.032 347 337.156 347H272.094C269.218 347 266.46 345.858 264.426 343.824C262.392 341.79 261.25 339.032 261.25 336.156C261.25 333.28 262.392 330.522 264.426 328.489C266.46 326.455 269.218 325.312 272.094 325.312H305.312C316.91 325.312 326.312 315.91 326.312 304.312V271.094C326.312 268.218 327.455 265.46 329.489 263.426C331.522 261.392 334.28 260.25 337.156 260.25ZM87.75 97.5937C87.75 91.6049 92.6049 86.75 98.5937 86.75V86.75C104.583 86.75 109.437 91.6049 109.437 97.5937V97.5937C109.437 103.583 104.583 108.437 98.5937 108.437V108.437C92.6049 108.437 87.75 103.583 87.75 97.5937V97.5937Z" fill="#FF8400"/>
<path d="M152.812 43.375H44.375V151.812H152.812V43.375ZM66.0625 65.0625H131.125V130.125H66.0625V65.0625ZM109.438 238.562H87.75V260.25H109.438V238.562Z" fill="white"/>
<path d="M152.812 195.188H44.375V303.625H152.812V195.188ZM66.0625 216.875H131.125V281.938H66.0625V216.875ZM239.562 86.75H261.25V108.438H239.562V86.75Z" fill="white"/>
<path d="M196.188 43.375H304.625V151.812H196.188V43.375ZM217.875 65.0625V130.125H282.938V65.0625H217.875ZM174.5 173.5V216.875H196.188V238.562H174.5V260.25H217.875V216.875H239.562V260.25H261.25V238.562H304.625V216.875H239.562V173.5H174.5ZM217.875 216.875H196.188V195.188H217.875V216.875ZM304.625 260.25H282.938V281.938H239.562V303.625H304.625V260.25ZM217.875 303.625V281.938H174.5V303.625H217.875Z" fill="white"/>
<path d="M261.25 195.188H304.625V173.5H261.25V195.188Z" fill="white"/>
<circle cx="98.3528" cy="97.3528" r="12.5306" fill="white"/>
<path d="M7.74719 173.5L344.144 170.608" stroke="#FF8400" stroke-width="7" stroke-linecap="round" stroke-linejoin="round"/>
</g>
</g>
<defs>
<filter id="filter0_d_649_5987" x="0" y="0" width="358" height="358" filterUnits="userSpaceOnUse" color-interpolation-filters="sRGB">
<feFlood flood-opacity="0" result="BackgroundImageFix"/>
<feColorMatrix in="SourceAlpha" type="matrix" values="0 0 0 0 0 0 0 0 0 0 0 0 0 0 0 0 0 0 127 0" result="hardAlpha"/>
<feOffset dx="5" dy="7"/>
<feGaussianBlur stdDeviation="2"/>
<feComposite in2="hardAlpha" operator="out"/>
<feColorMatrix type="matrix" values="0 0 0 0 0 0 0 0 0 0 0 0 0 0 0 0 0 0 0.25 0"/>
<feBlend mode="normal" in2="BackgroundImageFix" result="effect1_dropShadow_649_5987"/>
<feBlend mode="normal" in="SourceGraphic" in2="effect1_dropShadow_649_5987" result="shape"/>
</filter>
<clipPath id="clip0_649_5987">
<rect width="347" height="347" fill="white" transform="translate(1)"/>
</clipPath>
</defs>
</svg>
