<svg width="40" height="40" viewBox="0 0 40 40" fill="none" xmlns="http://www.w3.org/2000/svg">
<path d="M20 37.5C16.5388 37.5 13.1554 36.4736 10.2775 34.5507C7.39967 32.6278 5.15665 29.8947 3.83212 26.697C2.50758 23.4992 2.16102 19.9806 2.83627 16.5859C3.51151 13.1912 5.17822 10.073 7.62564 7.62562C10.0731 5.1782 13.1913 3.51149 16.5859 2.83625C19.9806 2.16101 23.4993 2.50757 26.697 3.8321C29.8947 5.15663 32.6278 7.39965 34.5507 10.2775C36.4737 13.1554 37.5 16.5388 37.5 20C37.5 24.6413 35.6563 29.0925 32.3744 32.3744C29.0925 35.6562 24.6413 37.5 20 37.5ZM20 4.99999C17.0333 4.99999 14.1332 5.87973 11.6665 7.52795C9.19972 9.17617 7.27713 11.5188 6.14181 14.2597C5.0065 17.0006 4.70945 20.0166 5.28823 22.9263C5.86701 25.8361 7.29562 28.5088 9.39341 30.6066C11.4912 32.7044 14.1639 34.133 17.0737 34.7118C19.9834 35.2905 22.9994 34.9935 25.7403 33.8582C28.4812 32.7229 30.8238 30.8003 32.4721 28.3335C34.1203 25.8668 35 22.9667 35 20C35 16.0217 33.4197 12.2064 30.6066 9.39339C27.7936 6.58034 23.9783 4.99999 20 4.99999Z" fill="white"/>
<path d="M25.7375 27.5L18.75 20.5125V8.75H21.25V19.475L27.5 25.7375L25.7375 27.5Z" fill="white"/>
</svg>
