<svg width="50" height="51" viewBox="0 0 50 51" fill="none" xmlns="http://www.w3.org/2000/svg">
<path d="M16.3935 0.645409L0.647647 16.3933C0.442679 16.5965 0.279985 16.8383 0.168956 17.1047C0.0579273 17.3711 0.000762939 17.6568 0.000762939 17.9454C0.000762939 18.234 0.0579273 18.5198 0.168956 18.7862C0.279985 19.0525 0.442679 19.2943 0.647647 19.4975L30.5018 49.3537C30.7045 49.5588 30.9459 49.7217 31.2119 49.8328C31.478 49.9439 31.7635 50.0012 32.0518 50.0012C32.3402 50.0012 32.6256 49.9439 32.8917 49.8328C33.1578 49.7217 33.3991 49.5588 33.6018 49.3537L49.3497 33.6058C49.5547 33.4027 49.7174 33.1609 49.8284 32.8945C49.9395 32.6281 49.9966 32.3423 49.9966 32.0537C49.9966 31.7651 49.9395 31.4794 49.8284 31.213C49.7174 30.9466 49.5547 30.7048 49.3497 30.5017L19.4956 0.647492C19.2924 0.442525 19.0506 0.27983 18.7842 0.168802C18.5178 0.0577728 18.2321 0.000608444 17.9435 0.000608444C17.6549 0.000608444 17.3691 0.0577728 17.1027 0.168802C16.8363 0.27983 16.5946 0.442525 16.3914 0.647492L16.3935 0.645409ZM34.4456 42.9308C34.1668 43.2244 33.8319 43.459 33.4609 43.6208C33.0898 43.7826 32.69 43.8684 32.2853 43.873C31.8805 43.8776 31.4788 43.801 31.1042 43.6477C30.7295 43.4944 30.3894 43.2674 30.104 42.9804C29.8186 42.6933 29.5937 42.3518 29.4425 41.9763C29.2914 41.6007 29.2171 41.1987 29.2241 40.7939C29.2311 40.3892 29.3192 39.9899 29.4832 39.6198C29.6472 39.2497 29.8838 38.9162 30.1789 38.6392C30.7543 38.1068 31.5138 37.8185 32.2975 37.8347C33.0812 37.851 33.828 38.1707 34.3808 38.7264C34.9336 39.2822 35.2492 40.0307 35.2613 40.8145C35.2734 41.5983 34.981 42.3583 34.4456 42.9308ZM28.6726 37.1725C28.3949 37.4696 28.06 37.7076 27.6881 37.8722C27.3162 38.0369 26.915 38.1248 26.5083 38.1306C26.1016 38.1365 25.6979 38.0603 25.3214 37.9065C24.9449 37.7527 24.6033 37.5246 24.3171 37.2356C24.0308 36.9467 23.8058 36.603 23.6555 36.2251C23.5052 35.8472 23.4327 35.4428 23.4424 35.0362C23.4521 34.6296 23.5437 34.2292 23.7118 33.8588C23.8798 33.4884 24.1209 33.1558 24.4206 32.8808C24.9975 32.3579 25.7539 32.0777 26.5322 32.0987C27.3106 32.1197 28.0508 32.4402 28.5987 32.9935C29.1466 33.5467 29.4598 34.29 29.4732 35.0686C29.4866 35.8471 29.2012 36.6007 28.6726 37.1725ZM22.9018 31.4017C22.623 31.6952 22.2882 31.9298 21.9171 32.0916C21.5461 32.2535 21.1463 32.3392 20.7415 32.3439C20.3367 32.3485 19.9351 32.2719 19.5604 32.1185C19.1858 31.9652 18.8457 31.7383 18.5603 31.4512C18.2748 31.1641 18.0499 30.8227 17.8988 30.4471C17.7476 30.0716 17.6734 29.6695 17.6803 29.2648C17.6873 28.86 17.7754 28.4608 17.9394 28.0906C18.1034 27.7205 18.34 27.3871 18.6351 27.11C19.2105 26.5777 19.97 26.2893 20.7537 26.3056C21.5374 26.3219 22.2842 26.6415 22.837 27.1973C23.3898 27.753 23.7055 28.5016 23.7176 29.2854C23.7296 30.0691 23.4372 30.827 22.9018 31.3996V31.4017ZM17.1289 25.6287C16.6322 26.1194 15.9809 26.4228 15.2858 26.4875C14.5907 26.5522 13.8946 26.374 13.3159 25.9835C12.7373 25.5929 12.3118 25.0139 12.1118 24.345C11.9118 23.6761 11.9496 22.9586 12.2189 22.3145C12.4882 21.6704 12.9722 21.1394 13.5888 20.8119C14.2053 20.4844 14.9163 20.3805 15.6007 20.5179C16.2852 20.6554 16.9009 21.0257 17.3432 21.5658C17.7855 22.106 18.0271 22.7827 18.0268 23.4808V23.4829C18.0261 23.8819 17.9466 24.2769 17.7928 24.6451C17.6391 25.0134 17.4121 25.3476 17.1289 25.6287ZM11.3706 19.8579C10.8739 20.3485 10.2226 20.652 9.52746 20.7167C8.83232 20.7813 8.13624 20.6032 7.55758 20.2126C6.97893 19.822 6.55342 19.2431 6.35342 18.5742C6.15342 17.9053 6.19128 17.1878 6.46055 16.5437C6.72982 15.8996 7.21388 15.3686 7.83042 15.041C8.44696 14.7135 9.15792 14.6096 9.8424 14.7471C10.5269 14.8845 11.1426 15.2548 11.5849 15.795C12.0272 16.3352 12.2688 17.0119 12.2685 17.71C12.2677 18.109 12.1882 18.5061 12.0345 18.8743C11.8808 19.2425 11.6538 19.5768 11.3706 19.8579ZM42.9226 34.4517C42.4264 34.9428 41.7754 35.2469 41.0803 35.3122C40.3852 35.3775 39.6889 35.2 39.1098 34.81C38.5308 34.4199 38.1048 33.8412 37.9042 33.1725C37.7036 32.5038 37.7408 31.7862 38.0096 31.1418C38.2783 30.4974 38.762 29.966 39.3783 29.638C39.9946 29.3099 40.7056 29.2055 41.3902 29.3425C42.0748 29.4794 42.6908 29.8493 43.1335 30.3891C43.5762 30.929 43.8183 31.6056 43.8185 32.3037V32.3079C43.8178 32.7069 43.7382 33.1019 43.5845 33.4701C43.4308 33.8384 43.2059 34.1706 42.9226 34.4517ZM37.1518 28.6787C36.6556 29.1699 36.0046 29.474 35.3094 29.5393C34.6143 29.6046 33.918 29.4271 33.339 29.037C32.76 28.6469 32.3339 28.0683 32.1333 27.3996C31.9328 26.7308 31.97 26.0133 32.2388 25.3689C32.5075 24.7245 32.9912 24.1931 33.6075 23.8651C34.2238 23.537 34.9347 23.4326 35.6193 23.5695C36.304 23.7065 36.92 24.0763 37.3627 24.6162C37.8054 25.1561 38.0475 25.8326 38.0476 26.5308V26.535C38.0469 26.934 37.9674 27.329 37.8137 27.6972C37.66 28.0655 37.435 28.3997 37.1518 28.6808V28.6787ZM31.3789 22.9079C30.8827 23.399 30.2316 23.7031 29.5365 23.7684C28.8414 23.8338 28.1451 23.6563 27.5661 23.2662C26.987 22.8761 26.561 22.2975 26.3604 21.6287C26.1598 20.96 26.1971 20.2424 26.4658 19.598C26.7346 18.9537 27.2183 18.4223 27.8346 18.0942C28.4509 17.7662 29.1618 17.6618 29.8464 17.7987C30.531 17.9357 31.1471 18.3055 31.5898 18.8454C32.0325 19.3853 32.2745 20.0618 32.2747 20.76V20.7642C32.274 21.1632 32.1945 21.5582 32.0408 21.9264C31.887 22.2946 31.6621 22.6268 31.3789 22.9079ZM25.6206 17.1496C25.1239 17.6402 24.4726 17.9436 23.7775 18.0083C23.0823 18.073 22.3862 17.8949 21.8076 17.5043C21.2289 17.1137 20.8034 16.5347 20.6034 15.8659C20.4034 15.197 20.4413 14.4795 20.7105 13.8353C20.9798 13.1912 21.4639 12.6603 22.0804 12.3327C22.697 12.0052 23.4079 11.9013 24.0924 12.0388C24.7769 12.1762 25.3926 12.5465 25.8349 13.0867C26.2772 13.6268 26.5188 14.3035 26.5185 15.0017C26.5177 15.4007 26.4382 15.7977 26.2845 16.166C26.1308 16.5342 25.9038 16.8685 25.6206 17.1496ZM19.8497 11.3787C19.3531 11.8694 18.7018 12.1728 18.0066 12.2375C17.3115 12.3021 16.6154 12.124 16.0368 11.7335C15.4581 11.3429 15.0326 10.7639 14.8326 10.095C14.6326 9.42615 14.6704 8.70864 14.9397 8.06452C15.209 7.42039 15.693 6.88942 16.3096 6.56188C16.9261 6.23435 17.6371 6.13048 18.3216 6.26793C19.006 6.40538 19.6218 6.77567 20.0641 7.31584C20.5064 7.856 20.7479 8.53268 20.7476 9.23083C20.7469 9.62986 20.6674 10.0269 20.5137 10.3951C20.3599 10.7634 20.135 11.0976 19.8518 11.3787H19.8497Z" fill="white"/>
</svg>
