<svg width="45" height="45" viewBox="0 0 45 45" fill="none" xmlns="http://www.w3.org/2000/svg">
<g clip-path="url(#clip0_649_6081)">
<path d="M0.116333 1.91421C0.116333 1.54874 0.26148 1.19824 0.519843 0.939807C0.778206 0.681378 1.12862 0.536194 1.494 0.536194L9.76002 0.536194C10.1254 0.536194 10.4758 0.681378 10.7342 0.939807C10.9925 1.19824 11.1377 1.54874 11.1377 1.91421C11.1377 2.27969 10.9925 2.63019 10.7342 2.88862C10.4758 3.14705 10.1254 3.29224 9.76002 3.29224V3.29224C5.95569 3.29224 2.87167 6.37801 2.87167 10.1823V10.1823C2.87167 10.5478 2.72653 10.8983 2.46816 11.1567C2.2098 11.4152 1.85938 11.5604 1.494 11.5604C1.12862 11.5604 0.778206 11.4152 0.519843 11.1567C0.26148 10.8983 0.116333 10.5478 0.116333 10.1823V1.91421ZM33.1804 1.91421C33.1804 1.54874 33.3256 1.19824 33.5839 0.939807C33.8423 0.681378 34.1927 0.536194 34.5581 0.536194L42.8241 0.536194C43.1895 0.536194 43.5399 0.681378 43.7983 0.939807C44.0566 1.19824 44.2018 1.54874 44.2018 1.91421V10.1823C44.2018 10.5478 44.0566 10.8983 43.7983 11.1567C43.5399 11.4152 43.1895 11.5604 42.8241 11.5604C42.4587 11.5604 42.1083 11.4152 41.8499 11.1567C41.5916 10.8983 41.4464 10.5478 41.4464 10.1823V10.1823C41.4464 6.37801 38.3624 3.29224 34.5581 3.29224V3.29224C34.1927 3.29224 33.8423 3.14705 33.5839 2.88862C33.3256 2.63019 33.1804 2.27969 33.1804 1.91421ZM1.494 33.6087C1.85938 33.6087 2.2098 33.7539 2.46816 34.0123C2.72653 34.2707 2.87167 34.6212 2.87167 34.9867V34.9867C2.87167 38.7911 5.95569 41.8768 9.76002 41.8768V41.8768C10.1254 41.8768 10.4758 42.022 10.7342 42.2804C10.9925 42.5389 11.1377 42.8894 11.1377 43.2548C11.1377 43.6203 10.9925 43.9708 10.7342 44.2293C10.4758 44.4877 10.1254 44.6329 9.76002 44.6329H1.494C1.12862 44.6329 0.778206 44.4877 0.519843 44.2293C0.26148 43.9708 0.116333 43.6203 0.116333 43.2548V34.9867C0.116333 34.6212 0.26148 34.2707 0.519843 34.0123C0.778206 33.7539 1.12862 33.6087 1.494 33.6087ZM42.8241 33.6087C43.1895 33.6087 43.5399 33.7539 43.7983 34.0123C44.0566 34.2707 44.2018 34.6212 44.2018 34.9867V43.2548C44.2018 43.6203 44.0566 43.9708 43.7983 44.2293C43.5399 44.4877 43.1895 44.6329 42.8241 44.6329H34.5581C34.1927 44.6329 33.8423 44.4877 33.5839 44.2293C33.3256 43.9708 33.1804 43.6203 33.1804 43.2548C33.1804 42.8894 33.3256 42.5389 33.5839 42.2804C33.8423 42.022 34.1927 41.8768 34.5581 41.8768V41.8768C38.3624 41.8768 41.4464 38.7911 41.4464 34.9867V34.9867C41.4464 34.6212 41.5916 34.2707 41.8499 34.0123C42.1083 33.7539 42.4587 33.6087 42.8241 33.6087ZM11.1377 12.9384C11.1377 12.1775 11.7545 11.5604 12.5154 11.5604V11.5604C13.2762 11.5604 13.893 12.1775 13.893 12.9384V12.9384C13.893 13.6992 13.2762 14.3164 12.5154 14.3164V14.3164C11.7545 14.3164 11.1377 13.6992 11.1377 12.9384V12.9384Z" fill="#333333"/>
<path d="M19.4037 6.04828H5.62701V19.8285H19.4037V6.04828ZM8.38235 8.80432H16.6484V17.0724H8.38235V8.80432ZM13.893 30.8527H11.1377V33.6087H13.893V30.8527Z" fill="white"/>
<path d="M19.4037 25.3406H5.62701V39.1208H19.4037V25.3406ZM8.38235 28.0966H16.6484V36.3647H8.38235V28.0966ZM30.4251 11.5604H33.1804V14.3164H30.4251V11.5604Z" fill="white"/>
<path d="M24.9144 6.04828H38.6911V19.8285H24.9144V6.04828ZM27.6697 8.80432V17.0724H35.9358V8.80432H27.6697ZM22.1591 22.5845V28.0966H24.9144V30.8527H22.1591V33.6087H27.6697V28.0966H30.4251V33.6087H33.1804V30.8527H38.6911V28.0966H30.4251V22.5845H22.1591ZM27.6697 28.0966H24.9144V25.3406H27.6697V28.0966ZM38.6911 33.6087H35.9358V36.3647H30.4251V39.1208H38.6911V33.6087ZM27.6697 39.1208V36.3647H22.1591V39.1208H27.6697Z" fill="white"/>
<path d="M33.1804 25.3406H38.6911V22.5845H33.1804V25.3406Z" fill="white"/>
<ellipse cx="12.4847" cy="12.9077" rx="1.59197" ry="1.59238" fill="white"/>
<path d="M0.973572 22.5845L43.712 22.217" stroke="#333333" stroke-width="7" stroke-linecap="round" stroke-linejoin="round"/>
</g>
<defs>
<clipPath id="clip0_649_6081">
<rect width="44.0854" height="44.0967" fill="white" transform="translate(0.116333 0.536194)"/>
</clipPath>
</defs>
</svg>
