<svg width="72" height="73" viewBox="0 0 72 73" fill="none" xmlns="http://www.w3.org/2000/svg">
<g filter="url(#filter0_d_784_6077)">
<path d="M35.84 52C36.96 52 37.9072 51.6067 38.6816 50.8202C39.456 50.0337 39.8421 49.0728 39.84 47.9375C39.84 46.8 39.4539 45.838 38.6816 45.0515C37.9093 44.265 36.9621 43.8728 35.84 43.875C34.72 43.875 33.7739 44.2682 33.0016 45.0547C32.2293 45.8412 31.8421 46.8022 31.84 47.9375C31.84 49.075 32.2272 50.037 33.0016 50.8235C33.776 51.61 34.7221 52.0022 35.84 52ZM32.96 39.4875H38.88C38.88 37.7 39.0805 36.2917 39.4816 35.2625C39.8827 34.2333 41.0155 32.825 42.88 31.0375C44.2667 29.6292 45.36 28.288 46.16 27.014C46.96 25.74 47.36 24.2103 47.36 22.425C47.36 19.3917 46.2667 17.0625 44.08 15.4375C41.8933 13.8125 39.3067 13 36.32 13C33.28 13 30.8128 13.8125 28.9184 15.4375C27.024 17.0625 25.7045 19.0125 24.96 21.2875L30.24 23.4C30.5067 22.425 31.1072 21.3687 32.0416 20.2312C32.976 19.0937 34.4021 18.525 36.32 18.525C38.0267 18.525 39.3067 18.9995 40.16 19.9485C41.0133 20.8975 41.44 21.9397 41.44 23.075C41.44 24.1583 41.12 25.1745 40.48 26.1235C39.84 27.0725 39.04 27.9522 38.08 28.7625C35.7333 30.875 34.2933 32.4729 33.76 33.5562C33.2267 34.6396 32.96 36.6167 32.96 39.4875ZM36 65C31.5733 65 27.4133 64.1463 23.52 62.439C19.6267 60.7317 16.24 58.4166 13.36 55.4937C10.48 52.5687 8.20053 49.1292 6.5216 45.175C4.84267 41.2208 4.00213 36.9958 4 32.5C4 28.0042 4.84053 23.7792 6.5216 19.825C8.20267 15.8708 10.4821 12.4312 13.36 9.50625C16.24 6.58125 19.6267 4.26617 23.52 2.561C27.4133 0.855834 31.5733 0.00216667 36 0C40.4267 0 44.5867 0.853667 48.48 2.561C52.3733 4.26833 55.76 6.58342 58.64 9.50625C61.52 12.4312 63.8005 15.8708 65.4816 19.825C67.1627 23.7792 68.0021 28.0042 68 32.5C68 36.9958 67.1595 41.2208 65.4784 45.175C63.7973 49.1292 61.5179 52.5687 58.64 55.4937C55.76 58.4187 52.3733 60.7349 48.48 62.4422C44.5867 64.1496 40.4267 65.0022 36 65ZM36 58.5C43.1467 58.5 49.2 55.9812 54.16 50.9437C59.12 45.9062 61.6 39.7583 61.6 32.5C61.6 25.2417 59.12 19.0937 54.16 14.0562C49.2 9.01875 43.1467 6.5 36 6.5C28.8533 6.5 22.8 9.01875 17.84 14.0562C12.88 19.0937 10.4 25.2417 10.4 32.5C10.4 39.7583 12.88 45.9062 17.84 50.9437C22.8 55.9812 28.8533 58.5 36 58.5Z" fill="#FF8400"/>
</g>
<defs>
<filter id="filter0_d_784_6077" x="0" y="0" width="72" height="73" filterUnits="userSpaceOnUse" color-interpolation-filters="sRGB">
<feFlood flood-opacity="0" result="BackgroundImageFix"/>
<feColorMatrix in="SourceAlpha" type="matrix" values="0 0 0 0 0 0 0 0 0 0 0 0 0 0 0 0 0 0 127 0" result="hardAlpha"/>
<feOffset dy="4"/>
<feGaussianBlur stdDeviation="2"/>
<feComposite in2="hardAlpha" operator="out"/>
<feColorMatrix type="matrix" values="0 0 0 0 0 0 0 0 0 0 0 0 0 0 0 0 0 0 0.25 0"/>
<feBlend mode="normal" in2="BackgroundImageFix" result="effect1_dropShadow_784_6077"/>
<feBlend mode="normal" in="SourceGraphic" in2="effect1_dropShadow_784_6077" result="shape"/>
</filter>
</defs>
</svg>
