<svg width="40" height="40" viewBox="0 0 40 40" fill="none" xmlns="http://www.w3.org/2000/svg">
<path d="M13.3333 23.3333C12.8611 23.3333 12.465 23.1733 12.145 22.8533C11.8261 22.5344 11.6667 22.1389 11.6667 21.6667C11.6667 21.1944 11.8261 20.7983 12.145 20.4783C12.465 20.1594 12.8611 20 13.3333 20C13.8056 20 14.2017 20.1594 14.5217 20.4783C14.8406 20.7983 15 21.1944 15 21.6667C15 22.1389 14.8406 22.5344 14.5217 22.8533C14.2017 23.1733 13.8056 23.3333 13.3333 23.3333ZM20 23.3333C19.5278 23.3333 19.1322 23.1733 18.8133 22.8533C18.4933 22.5344 18.3333 22.1389 18.3333 21.6667C18.3333 21.1944 18.4933 20.7983 18.8133 20.4783C19.1322 20.1594 19.5278 20 20 20C20.4722 20 20.8683 20.1594 21.1883 20.4783C21.5072 20.7983 21.6667 21.1944 21.6667 21.6667C21.6667 22.1389 21.5072 22.5344 21.1883 22.8533C20.8683 23.1733 20.4722 23.3333 20 23.3333ZM26.6667 23.3333C26.1944 23.3333 25.7989 23.1733 25.48 22.8533C25.16 22.5344 25 22.1389 25 21.6667C25 21.1944 25.16 20.7983 25.48 20.4783C25.7989 20.1594 26.1944 20 26.6667 20C27.1389 20 27.5344 20.1594 27.8533 20.4783C28.1733 20.7983 28.3333 21.1944 28.3333 21.6667C28.3333 22.1389 28.1733 22.5344 27.8533 22.8533C27.5344 23.1733 27.1389 23.3333 26.6667 23.3333ZM8.33333 36.6667C7.41667 36.6667 6.63167 36.3405 5.97833 35.6883C5.32611 35.035 5 34.25 5 33.3333V9.99999C5 9.08333 5.32611 8.29888 5.97833 7.64666C6.63167 6.99333 7.41667 6.66666 8.33333 6.66666H10V3.33333H13.3333V6.66666H26.6667V3.33333H30V6.66666H31.6667C32.5833 6.66666 33.3683 6.99333 34.0217 7.64666C34.6739 8.29888 35 9.08333 35 9.99999V33.3333C35 34.25 34.6739 35.035 34.0217 35.6883C33.3683 36.3405 32.5833 36.6667 31.6667 36.6667H8.33333ZM8.33333 33.3333H31.6667V16.6667H8.33333V33.3333Z" fill="white"/>
</svg>
