<svg width="73" height="76" viewBox="0 0 73 76" fill="none" xmlns="http://www.w3.org/2000/svg">
<path d="M49.275 5.2688C46.2333 2.22713 42.2792 0.706299 38.6292 0.706299C34.9792 0.706299 30.7208 2.22713 27.9833 5.2688L10.3417 22.3021C4.25834 28.3855 4.25834 37.8146 10.3417 43.898C16.425 49.9813 25.8542 49.9813 31.9375 43.898L49.275 26.5605C55.0542 20.7813 55.0542 11.048 49.275 5.2688ZM45.0167 22.3021L36.5 30.8188L25.55 20.173L12.1667 33.5563C12.1667 31.123 12.775 28.3855 14.9042 26.5605L32.2417 9.22297C33.7625 7.70213 36.1958 6.78963 38.325 6.78963C40.4542 6.78963 42.8875 7.70213 44.7125 9.22297C48.3625 13.1771 48.3625 18.6521 45.0167 22.3021ZM59.6167 16.2188C59.6167 18.6521 59.0083 20.7813 58.4 23.2146C61.4417 26.8646 61.4417 32.3396 58.0958 35.6855L49.5792 44.2021L45.0167 39.6396L36.5 48.1563C32.5458 52.1105 27.0708 54.2396 21.9 54.2396C22.5083 55.1521 23.1167 56.0646 24.0292 56.9771C30.1125 63.0605 39.5417 63.0605 45.625 56.9771L62.9625 39.6396C69.0458 33.5563 69.0458 24.1271 62.9625 18.0438C61.4417 17.4355 60.5292 16.8271 59.6167 16.2188Z" fill="#FF8400"/>
</svg>
