<svg width="58" height="58" viewBox="0 0 58 58" fill="none" xmlns="http://www.w3.org/2000/svg">
<path d="M23.3611 45.385L16.5139 39.2225C15.8694 38.6425 15.5472 37.9417 15.5472 37.12C15.5472 36.2983 15.8694 35.5975 16.5139 35.0175C17.1583 34.4375 17.937 34.1475 18.85 34.1475C19.763 34.1475 20.5417 34.4375 21.1861 35.0175L25.6167 39.005L36.8139 28.9275C37.4583 28.3475 38.237 28.0575 39.15 28.0575C40.063 28.0575 40.8417 28.3475 41.4861 28.9275C42.1306 29.5075 42.4528 30.2083 42.4528 31.03C42.4528 31.8517 42.1306 32.5525 41.4861 33.1325L27.8722 45.385C27.2815 45.9167 26.5296 46.1825 25.6167 46.1825C24.7037 46.1825 23.9519 45.9167 23.3611 45.385ZM6.44444 58C4.67222 58 3.15456 57.4326 1.89144 56.2977C0.630481 55.1609 0 53.795 0 52.2V11.6C0 10.005 0.630481 8.64007 1.89144 7.5052C3.15456 6.3684 4.67222 5.8 6.44444 5.8H9.66667V2.9C9.66667 2.07833 9.97493 1.3891 10.5914 0.8323C11.2101 0.277433 11.9759 0 12.8889 0C13.8019 0 14.5677 0.277433 15.1863 0.8323C15.8029 1.3891 16.1111 2.07833 16.1111 2.9V5.8H41.8889V2.9C41.8889 2.07833 42.1982 1.3891 42.8169 0.8323C43.4334 0.277433 44.1982 0 45.1111 0C46.0241 0 46.7888 0.277433 47.4053 0.8323C48.024 1.3891 48.3333 2.07833 48.3333 2.9V5.8H51.5556C53.3278 5.8 54.8454 6.3684 56.1086 7.5052C57.3695 8.64007 58 10.005 58 11.6V52.2C58 53.795 57.3695 55.1609 56.1086 56.2977C54.8454 57.4326 53.3278 58 51.5556 58H6.44444ZM6.44444 52.2H51.5556V23.2H6.44444V52.2Z" fill="#FF5E00"/>
</svg>
