<svg width="67" height="68" viewBox="0 0 67 68" fill="none" xmlns="http://www.w3.org/2000/svg">
<path d="M34.7105 7.21279C35.3723 6.74003 36.2917 7.21315 36.2917 8.02652V59.9735C36.2917 60.7869 35.3723 61.26 34.7104 60.7872L16.75 47.9583H4.79169C3.68712 47.9583 2.79169 47.0629 2.79169 45.9583V22.0417C2.79169 20.9371 3.68712 20.0417 4.79169 20.0417H16.75L34.7105 7.21279Z" fill="white"/>
<path d="M44.6493 47.694C48.1134 44.1679 50.25 39.3335 50.25 34C50.25 28.6441 48.0954 23.7915 44.6056 20.2616" stroke="white" stroke-width="2" stroke-linecap="round" stroke-linejoin="round"/>
<path d="M52.4224 12.2859C57.9795 17.843 61.4167 25.5201 61.4167 34C61.4167 42.4799 57.9795 50.157 52.4224 55.7141" stroke="white" stroke-width="2" stroke-linecap="round" stroke-linejoin="round"/>
</svg>
