<svg width="29" height="29" viewBox="0 0 29 29" fill="none" xmlns="http://www.w3.org/2000/svg">
<path d="M19.0181 20.8376C16.7731 22.5816 13.9477 23.4044 11.1173 23.1383C8.28686 22.8723 5.66426 21.5375 3.78347 19.4057C1.90269 17.2739 0.90513 14.5054 0.993921 11.6639C1.08271 8.82241 2.25118 6.12159 4.2614 4.11137C6.27161 2.10115 8.97243 0.932689 11.8139 0.843897C14.6554 0.755105 17.4239 1.75266 19.5557 3.63345C21.6875 5.51424 23.0223 8.13683 23.2884 10.9672C23.5544 13.7976 22.7316 16.623 20.9876 18.8681L28.4606 26.3131L26.4771 28.2966L19.0321 20.8376H19.0181ZM12.1738 20.3906C13.2744 20.3906 14.3642 20.1738 15.381 19.7527C16.3978 19.3315 17.3217 18.7142 18.0999 17.9359C18.8782 17.1577 19.4955 16.2338 19.9167 15.217C20.3378 14.2002 20.5546 13.1104 20.5546 12.0098C20.5546 10.9092 20.3378 9.81937 19.9167 8.80256C19.4955 7.78575 18.8782 6.86185 18.0999 6.08362C17.3217 5.30538 16.3978 4.68805 15.381 4.26688C14.3642 3.8457 13.2744 3.62892 12.1738 3.62892C9.95102 3.62892 7.81932 4.5119 6.24761 6.08362C4.67589 7.65533 3.79291 9.78703 3.79291 12.0098C3.79291 14.2325 4.67589 16.3642 6.24761 17.9359C7.81932 19.5076 9.95102 20.3906 12.1738 20.3906Z" fill="white"/>
</svg>
